<?xml version="1.0" encoding="UTF-8" standalone="no"?>
<!-- Generator: Adobe Illustrator 16.0.0, SVG Export Plug-In . SVG Version: 6.00 Build 0)  -->

<svg
   xmlns:dc="http://purl.org/dc/elements/1.1/"
   xmlns:cc="http://creativecommons.org/ns#"
   xmlns:rdf="http://www.w3.org/1999/02/22-rdf-syntax-ns#"
   xmlns:svg="http://www.w3.org/2000/svg"
   xmlns="http://www.w3.org/2000/svg"
   xmlns:sodipodi="http://sodipodi.sourceforge.net/DTD/sodipodi-0.dtd"
   xmlns:inkscape="http://www.inkscape.org/namespaces/inkscape"
   version="1.1"
   id="Layer_1"
   x="0px"
   y="0px"
   width="864px"
   height="864px"
   viewBox="0 0 864 864"
   enable-background="new 0 0 864 864"
   xml:space="preserve"
   inkscape:version="0.91 r13725"
   sodipodi:docname="batzmaru_selected.svg"><metadata
     id="metadata3521"><rdf:RDF><cc:Work
         rdf:about=""><dc:format>image/svg+xml</dc:format><dc:type
           rdf:resource="http://purl.org/dc/dcmitype/StillImage" /><dc:title></dc:title></cc:Work></rdf:RDF></metadata><defs
     id="defs3519" /><sodipodi:namedview
     pagecolor="#ffffff"
     bordercolor="#666666"
     borderopacity="1"
     objecttolerance="10"
     gridtolerance="10"
     guidetolerance="10"
     inkscape:pageopacity="0"
     inkscape:pageshadow="2"
     inkscape:window-width="956"
     inkscape:window-height="1060"
     id="namedview3517"
     showgrid="false"
     inkscape:zoom="0.5462963"
     inkscape:cx="586.19557"
     inkscape:cy="423.70182"
     inkscape:window-x="1600"
     inkscape:window-y="16"
     inkscape:window-maximized="0"
     inkscape:current-layer="Layer_1" /><path
     d="M340.571,20.86c7.069-4.81,11.764-5.346,20.118,0c6.731,7.879,13.928,15.413,20.108,23.703  c20.941,28.096,34.325,59.972,45.703,92.835c1.676,4.839,4.753,9.19,8.137,15.568c6.428-7.203,10.71-12.186,15.188-16.987  c20.919-22.428,41.484-45.212,63.126-66.922c5.638-5.655,14.517-10.271,20.845,1.868c26.44,50.71,29.247,103.299,13.561,157.608  c-0.849,2.94-0.98,7.493,0.694,9.545c22.868,28.032,35.42,60.783,42.029,95.616c10.888,57.398-1.577,108.736-44.689,150.215  c-13.754,13.231-29.01,24.9-45.296,38.745c10.427,4.495,20.091,8.575,29.687,12.813c30.375,13.416,61.166,26.339,75.196,60.185  c4.677,7.919,6.196,15.976,0,22.992c-5.813,4.385-12.386,6.009-18.137,5.321c-28.424-3.4-56.679-8.188-85.038-12.164  c-4.219-0.591-8.677,0.535-13.023,0.866c0.451,3.948,0.256,8.105,1.46,11.809c5.925,18.209,13.537,35.976,18.074,54.504  c6.656,27.193,11.763,55.358-7.162,80.045c-6.156,8.029-16.35,12.965-24.698,19.315c1.79-1.76,3.581-3.519,5.37-5.278  c9.122,11.918,18.615,23.574,27.274,35.821c11.929,16.869,9.521,28.262-10.139,30.313c-32.405,3.384-65.608,4.477-97.966,1.319  c-27.319-2.665-29.665-9.882-22.849-37.034c2.301-9.162,6.746-17.787,10.226-26.695c-1.826-1.194-2.902-2.397-4.171-2.652  c-20.133-4.069-40.84-6.297-60.279-12.509c-17.196-5.497-32.805-5.96-49.485,0.296c-12.625,4.736-25.873,7.785-38.745,11.896  c-24.939,7.963-24.912,8.054-19.241,33.535c4.46,20.033-2.515,38.764-17.837,39.82c-27.14,1.872-54.848,2.951-81.697-0.488  c-26.528-3.399-29.757-13.203-16.848-36.807c3.91-7.148,10.396-13.247,16.723-18.626c8.899-7.567,18.751-14.016,27.206-20.217  c-6.604-9.496-14.245-17.649-18.567-27.29c-8.858-19.759-6.089-40.51,0.481-60.24c7.913-23.765,17.531-46.963,26.75-71.298  c-2.915-0.714-5.721-2.361-7.999-1.812c-24.941,6.011-49.692,12.837-74.722,18.427c-12.927,2.887-26.407,4.232-36.881-7.303  c-2.918-6.146-2.697-11.888,0-17.244c25.386-41.4,68.565-59.448,108.39-81.022c-19.412-18.051-39.347-34.102-56.239-52.888  c-24.278-27.004-37.107-59.522-37.767-96.377c-0.591-33.034,6.433-64.561,18.958-94.859c5.17-12.502,16.784-24.286,16.832-36.428  c0.049-12.788-10.209-25.622-15.988-38.424c-1.164-2.581-2.581-5.055-3.63-7.678c-8.584-21.437-17.254-42.809-16.423-66.639  c0.262-7.557,2.597-12.482,10.812-11.225c16.611,2.542,34.205,2.985,49.449,9.121c23.704,9.544,45.784,23.115,71.025,36.269  c0.287-6.457,1.161-13.117,0.775-19.701c-1.554-26.46-3.776-52.885-4.921-79.359c-0.133-3.104,4.754-9.043,7.529-9.176  c9.291-0.445,18.942,0.037,27.982,2.166c29.76,7.009,45.107,31.163,61.358,53.813c7.53,10.496,13.994,21.754,22.743,35.497  C306.452,101.417,308.725,55.497,340.571,20.86z M177.297,765.236c22.69,9.748,42.06,4.15,61.201-4.476  c35.735-16.105,71.735-20.637,109.794-6.735c31.158,11.379,63.938,15.579,97.267,13.719c7.858-0.439,16.111-0.546,15.492-11.924  c-2.144-39.456-8.803-77.062-30.665-111.775c-34.188-54.283-137.155-67.898-182.599-19.938  C209.916,664.077,190.586,712.262,177.297,765.236z M195.426,325.259c-23.612,4.562-46.2,8.235-68.438,13.406  c-25.355,5.896-28.511,13.883-23.794,39.968c8.968,49.601,92.455,86.389,145.5,57.484c42.964-23.41,48.098-56.161,42.745-100.198  c-0.469-3.858-6.622-9.608-10.565-9.986c-13.173-1.26-26.541-0.479-39.918-0.479c-0.784,13.896-6.277,22.759-19.451,24.095  C205.837,351.136,199.803,340.456,195.426,325.259z M391.048,320.246c-12.512,1.002-24.124,0.968-35.247,3.284  c-4.572,0.951-11.03,6.528-11.652,10.735c-9.644,65.39,45.21,116.374,110.215,101.781c49.419-11.093,81.022-54.222,69.767-112.378  c-0.504-2.603-3.765-6.647-5.797-6.681c-27.391-0.446-54.79-0.299-81.842-0.299c-1.465,21.628-8.468,30.867-21.036,31.388  C402.978,348.592,395.544,340.352,391.048,320.246z M508.874,826.409c-9.204-10.149-14.365-16.874-20.55-22.47  c-19.169-17.346-42.149-22.244-67.527-21.273c-22.86,0.876-27.697,3.631-33.583,26.101c-3.935,15.023-0.61,20.7,14.983,21.848  c22.342,1.646,44.778,3.012,67.155,2.755C481.087,833.234,492.779,829.391,508.874,826.409z M156.072,841.562  c14.291-1.773,26.687-2.735,38.79-5.152c3.8-0.76,9.736-5.499,9.68-8.315c-0.234-11.725-0.929-23.906-4.656-34.828  c-1.218-3.571-12.059-4.399-18.664-5.469c-10.114-1.638-21.182-5.393-30.396-2.896c-18.376,4.978-32.294,17.787-43.129,33.747  c-6.186,9.111-3.5,14.548,6.313,16.427C128.471,837.842,143.12,839.611,156.072,841.562z M270.078,487.291  c1.236,1.647,2.471,3.295,3.708,4.942c35.811-36.662,74.249-28.846,113.746-6.81c-11.754-23.357-29.333-37.991-51.629-46.97  c-11.546-4.65-23.497-3.347-31.8,5.847C291.877,457.832,281.337,472.886,270.078,487.291z M381.701,502.813  c-47.825-30.329-89.76-23.299-107.944,16.28C309.003,513.778,344.664,508.399,381.701,502.813z"
     id="path3497" /><g
     id="g3499"><path
       fill-rule="evenodd"
       clip-rule="evenodd"
       fill="#FFFFFF"
       d="M177.297,765.236c13.29-52.975,32.619-101.159,70.491-141.129   c45.444-47.961,148.412-34.346,182.599,19.938c21.862,34.713,28.521,72.319,30.665,111.775   c0.619,11.378-7.634,11.484-15.492,11.924c-33.33,1.86-66.109-2.34-97.267-13.719c-38.059-13.901-74.059-9.37-109.794,6.735   C219.357,769.387,199.987,774.984,177.297,765.236z"
       id="path3501" /><path
       fill-rule="evenodd"
       clip-rule="evenodd"
       fill="#FFFFFF"
       d="M195.426,325.259c4.377,15.197,10.411,25.877,26.078,24.29   c13.174-1.336,18.667-10.199,19.451-24.095c13.378,0,26.746-0.782,39.918,0.479c3.943,0.377,10.097,6.128,10.565,9.986   c5.354,44.037,0.219,76.789-42.745,100.198c-53.045,28.904-136.532-7.883-145.5-57.484c-4.717-26.085-1.561-34.072,23.794-39.968   C149.227,333.494,171.814,329.822,195.426,325.259z"
       id="path3503" /><path
       fill-rule="evenodd"
       clip-rule="evenodd"
       fill="#FFFFFF"
       d="M391.048,320.246c4.496,20.106,11.93,28.347,24.409,27.83   c12.568-0.521,19.571-9.76,21.036-31.388c27.052,0,54.451-0.147,81.842,0.299c2.032,0.034,5.293,4.078,5.797,6.681   c11.256,58.156-20.348,101.285-69.767,112.378c-65.005,14.593-119.859-36.392-110.215-101.781   c0.622-4.208,7.08-9.784,11.652-10.735C366.924,321.214,378.537,321.248,391.048,320.246z"
       id="path3505" /></g><g
     id="g3507"><path
       fill-rule="evenodd"
       clip-rule="evenodd"
       fill="#FDE92B"
       d="M508.874,826.409c-16.095,2.981-27.787,6.825-39.521,6.96   c-22.377,0.257-44.813-1.108-67.155-2.755c-15.594-1.147-18.918-6.824-14.983-21.848c5.886-22.47,10.723-25.225,33.583-26.101   c25.378-0.971,48.358,3.928,67.527,21.273C494.509,809.535,499.67,816.26,508.874,826.409z"
       id="path3509" /><path
       fill-rule="evenodd"
       clip-rule="evenodd"
       fill="#FDE92B"
       d="M156.072,841.562c-12.953-1.95-27.602-3.72-42.062-6.487   c-9.813-1.879-12.499-7.315-6.313-16.427c10.835-15.96,24.753-28.77,43.129-33.747c9.214-2.496,20.282,1.259,30.396,2.896   c6.605,1.069,17.446,1.897,18.664,5.469c3.727,10.922,4.422,23.104,4.656,34.828c0.056,2.816-5.88,7.556-9.68,8.315   C182.759,838.826,170.363,839.788,156.072,841.562z"
       id="path3511" /><path
       fill-rule="evenodd"
       clip-rule="evenodd"
       fill="#FDE92B"
       d="M270.078,487.291c11.259-14.405,21.799-29.459,34.024-42.99   c8.303-9.193,20.254-10.497,31.8-5.847c22.295,8.979,39.875,23.612,51.629,46.97c-39.498-22.036-77.936-29.853-113.746,6.81   C272.549,490.586,271.314,488.938,270.078,487.291z"
       id="path3513" /><path
       fill-rule="evenodd"
       clip-rule="evenodd"
       fill="#FDE92B"
       d="M381.701,502.813c-37.038,5.586-72.698,10.965-107.944,16.28   C291.941,479.515,333.876,472.484,381.701,502.813z"
       id="path3515" /></g><path
     sodipodi:type="star"
     style="fill:#ffff00;fill-rule:evenodd;stroke:#000000;stroke-width:1px;stroke-linecap:butt;stroke-linejoin:miter;stroke-opacity:1"
     id="path3420"
     sodipodi:sides="5"
     sodipodi:cx="384.97214"
     sodipodi:cy="566.52155"
     sodipodi:r1="220.46896"
     sodipodi:r2="110.23448"
     sodipodi:arg1="0.7608417"
     sodipodi:arg2="1.3891602"
     inkscape:flatsided="false"
     inkscape:rounded="0"
     inkscape:randomized="0"
     d="m 544.64808,718.5418 -139.76329,-43.59919 -115.14992,90.41662 -1.72395,-146.39568 -121.5746,-81.5738 138.69784,-46.87833 40.01269,-140.83201 87.44392,117.42329 146.3038,-5.46516 -84.65452,119.4499 z"
     inkscape:transform-center-x="21.013973"
     inkscape:transform-center-y="-13.529872"
     transform="matrix(1.7075238,0,0,1.5029466,-132.8376,-301.51346)" /></svg>